<svg width="66" height="66" viewBox="0 0 66 66" fill="none" xmlns="http://www.w3.org/2000/svg">
<g filter="url(#filter0_d_3_6444)">
<path fill-rule="evenodd" clip-rule="evenodd" d="M32.8855 53.7709C45.5247 53.7709 55.7709 43.5247 55.7709 30.8855C55.7709 18.2462 45.5247 8 32.8855 8C20.2462 8 10 18.2462 10 30.8855C10 43.5247 20.2462 53.7709 32.8855 53.7709Z" fill="white"/>
</g>
<g clip-path="url(#clip0_3_6444)">
<path d="M36.0005 32.2852L36.6072 28.3329H32.8146V25.7681C32.8146 24.687 33.3442 23.6325 35.0429 23.6325H36.7669V20.2678C36.7669 20.2678 35.2026 20.001 33.7066 20.001C30.5835 20.001 28.5422 21.8942 28.5422 25.321V28.3336H25.0703V32.2859H28.5422V41.8408H32.8146V32.2859L36.0005 32.2852Z" fill="#0077B5"/>
</g>
<defs>
<filter id="filter0_d_3_6444" x="0" y="0" width="65.7695" height="65.7705" filterUnits="userSpaceOnUse" color-interpolation-filters="sRGB">
<feFlood flood-opacity="0" result="BackgroundImageFix"/>
<feColorMatrix in="SourceAlpha" type="matrix" values="0 0 0 0 0 0 0 0 0 0 0 0 0 0 0 0 0 0 127 0" result="hardAlpha"/>
<feOffset dy="2"/>
<feGaussianBlur stdDeviation="5"/>
<feColorMatrix type="matrix" values="0 0 0 0 0 0 0 0 0 0 0 0 0 0 0 0 0 0 0.1 0"/>
<feBlend mode="normal" in2="BackgroundImageFix" result="effect1_dropShadow_3_6444"/>
<feBlend mode="normal" in="SourceGraphic" in2="effect1_dropShadow_3_6444" result="shape"/>
</filter>
<clipPath id="clip0_3_6444">
<rect width="21.8399" height="21.8399" fill="white" transform="translate(20 20)"/>
</clipPath>
</defs>
</svg>
