<svg width="24" height="24" viewBox="0 0 24 24" fill="none" xmlns="http://www.w3.org/2000/svg">
<path d="M8.12004 9.29007L12 13.1701L15.88 9.29007C15.9726 9.19749 16.0825 9.12405 16.2035 9.07394C16.3245 9.02384 16.4541 8.99805 16.585 8.99805C16.716 8.99805 16.8456 9.02384 16.9666 9.07394C17.0875 9.12405 17.1975 9.19749 17.29 9.29007C17.3826 9.38265 17.4561 9.49256 17.5062 9.61352C17.5563 9.73449 17.5821 9.86414 17.5821 9.99507C17.5821 10.126 17.5563 10.2556 17.5062 10.3766C17.4561 10.4976 17.3826 10.6075 17.29 10.7001L12.7 15.2901C12.6075 15.3828 12.4976 15.4563 12.3767 15.5065C12.2557 15.5567 12.126 15.5825 11.995 15.5825C11.8641 15.5825 11.7344 15.5567 11.6134 15.5065C11.4924 15.4563 11.3826 15.3828 11.29 15.2901L6.70004 10.7001C6.60733 10.6076 6.53379 10.4977 6.4836 10.3767C6.43342 10.2557 6.40759 10.126 6.40759 9.99507C6.40759 9.8641 6.43342 9.73442 6.4836 9.61344C6.53379 9.49247 6.60733 9.38258 6.70004 9.29007C7.09004 8.91007 7.73004 8.90007 8.12004 9.29007Z" fill="#3D3D3D"/>
</svg>
