<svg width="71" height="71" viewBox="0 0 71 71" fill="none" xmlns="http://www.w3.org/2000/svg">
<g filter="url(#filter0_d_3_6448)">
<path fill-rule="evenodd" clip-rule="evenodd" d="M35.1182 58.2364C48.9906 58.2364 60.2364 46.9906 60.2364 33.1182C60.2364 19.2458 48.9906 8 35.1182 8C21.2458 8 10 19.2458 10 33.1182C10 46.9906 21.2458 58.2364 35.1182 58.2364Z" fill="white"/>
</g>
<path fill-rule="evenodd" clip-rule="evenodd" d="M30.7383 22.0655C31.9027 22.0119 32.274 22 35.2402 22C38.2065 22 38.5778 22.0129 39.7412 22.0655C40.9047 22.1181 41.6989 22.3038 42.3938 22.5728C43.1215 22.8478 43.7816 23.2776 44.3276 23.8336C44.8835 24.3786 45.3124 25.0377 45.5864 25.7664C45.8564 26.4613 46.041 27.2555 46.0947 28.4169C46.1483 29.5834 46.1602 29.9547 46.1602 32.9199C46.1602 35.8862 46.1473 36.2575 46.0947 37.4219C46.042 38.5834 45.8564 39.3776 45.5864 40.0725C45.3124 40.8012 44.8828 41.4615 44.3276 42.0073C43.7816 42.5632 43.1215 42.9921 42.3938 43.2661C41.6989 43.5361 40.9047 43.7207 39.7432 43.7743C38.5778 43.8279 38.2065 43.8399 35.2402 43.8399C32.274 43.8399 31.9027 43.827 30.7383 43.7743C29.5768 43.7217 28.7826 43.5361 28.0877 43.2661C27.359 42.992 26.6987 42.5625 26.1529 42.0073C25.5973 41.462 25.1674 40.802 24.8931 40.0735C24.6241 39.3786 24.4394 38.5844 24.3858 37.4229C24.3322 36.2565 24.3203 35.8852 24.3203 32.9199C24.3203 29.9537 24.3332 29.5824 24.3858 28.4189C24.4384 27.2555 24.6241 26.4613 24.8931 25.7664C25.1678 25.0378 25.5981 24.3779 26.1539 23.8326C26.6989 23.2771 27.3585 22.8472 28.0867 22.5728C28.7816 22.3038 29.5758 22.1191 30.7373 22.0655H30.7383ZM39.6529 24.0311C38.5013 23.9785 38.1559 23.9676 35.2402 23.9676C32.3246 23.9676 31.9792 23.9785 30.8276 24.0311C29.7624 24.0798 29.1846 24.2574 28.7995 24.4073C28.2902 24.6059 27.9259 24.8412 27.5437 25.2234C27.1814 25.5758 26.9026 26.0049 26.7277 26.4792C26.5778 26.8643 26.4001 27.4421 26.3514 28.5073C26.2988 29.6588 26.2879 30.0043 26.2879 32.9199C26.2879 35.8356 26.2988 36.181 26.3514 37.3326C26.4001 38.3978 26.5778 38.9755 26.7277 39.3607C26.9024 39.8342 27.1813 40.2641 27.5437 40.6165C27.8961 40.9788 28.3259 41.2578 28.7995 41.4325C29.1846 41.5824 29.7624 41.7601 30.8276 41.8088C31.9792 41.8614 32.3236 41.8723 35.2402 41.8723C38.1569 41.8723 38.5013 41.8614 39.6529 41.8088C40.7181 41.7601 41.2958 41.5824 41.681 41.4325C42.1903 41.234 42.5546 40.9987 42.9368 40.6165C43.2992 40.2641 43.5781 39.8342 43.7528 39.3607C43.9027 38.9755 44.0804 38.3978 44.1291 37.3326C44.1817 36.181 44.1926 35.8356 44.1926 32.9199C44.1926 30.0043 44.1817 29.6588 44.1291 28.5073C44.0804 27.4421 43.9027 26.8643 43.7528 26.4792C43.5543 25.9699 43.319 25.6056 42.9368 25.2234C42.5843 24.8611 42.1552 24.5823 41.681 24.4073C41.2958 24.2574 40.7181 24.0798 39.6529 24.0311ZM33.8455 36.2862C34.6244 36.6105 35.4918 36.6543 36.2994 36.4101C37.107 36.1659 37.8048 35.6488 38.2736 34.9473C38.7424 34.2458 38.9531 33.4033 38.8697 32.5636C38.7863 31.724 38.414 30.9394 37.8164 30.3438C37.4354 29.9631 36.9747 29.6716 36.4676 29.4902C35.9604 29.3089 35.4194 29.2423 34.8834 29.2951C34.3474 29.348 33.8297 29.519 33.3678 29.796C32.9058 30.0729 32.511 30.4488 32.2118 30.8966C31.9125 31.3444 31.7163 31.853 31.6372 32.3858C31.5581 32.9186 31.5981 33.4622 31.7543 33.9777C31.9106 34.4931 32.1792 34.9675 32.5408 35.3667C32.9023 35.7659 33.3479 36.0799 33.8455 36.2862ZM31.2713 28.951C31.7925 28.4298 32.4113 28.0164 33.0923 27.7343C33.7733 27.4522 34.5032 27.3071 35.2402 27.3071C35.9773 27.3071 36.7072 27.4522 37.3882 27.7343C38.0692 28.0164 38.6879 28.4298 39.2091 28.951C39.7303 29.4722 40.1438 30.091 40.4259 30.772C40.7079 31.453 40.8531 32.1828 40.8531 32.9199C40.8531 33.657 40.7079 34.3869 40.4259 35.0679C40.1438 35.7489 39.7303 36.3676 39.2091 36.8888C38.1565 37.9414 36.7289 38.5328 35.2402 38.5328C33.7516 38.5328 32.324 37.9414 31.2713 36.8888C30.2187 35.8362 29.6274 34.4086 29.6274 32.9199C29.6274 31.4313 30.2187 30.0036 31.2713 28.951ZM42.098 28.143C42.2271 28.0211 42.3305 27.8746 42.402 27.7121C42.4736 27.5496 42.5117 27.3744 42.5143 27.1968C42.5169 27.0193 42.4839 26.843 42.4171 26.6785C42.3504 26.514 42.2513 26.3645 42.1257 26.239C42.0002 26.1134 41.8507 26.0143 41.6862 25.9476C41.5216 25.8808 41.3454 25.8478 41.1678 25.8504C40.9903 25.8529 40.8151 25.8911 40.6526 25.9626C40.4901 26.0342 40.3436 26.1376 40.2217 26.2667C39.9848 26.5179 39.855 26.8515 39.8601 27.1968C39.8651 27.5421 40.0045 27.8718 40.2487 28.116C40.4928 28.3602 40.8226 28.4996 41.1678 28.5046C41.5131 28.5096 41.8468 28.3799 42.098 28.143Z" fill="#0077B5"/>
<defs>
<filter id="filter0_d_3_6448" x="0" y="0" width="70.2383" height="70.2363" filterUnits="userSpaceOnUse" color-interpolation-filters="sRGB">
<feFlood flood-opacity="0" result="BackgroundImageFix"/>
<feColorMatrix in="SourceAlpha" type="matrix" values="0 0 0 0 0 0 0 0 0 0 0 0 0 0 0 0 0 0 127 0" result="hardAlpha"/>
<feOffset dy="2"/>
<feGaussianBlur stdDeviation="5"/>
<feColorMatrix type="matrix" values="0 0 0 0 0 0 0 0 0 0 0 0 0 0 0 0 0 0 0.1 0"/>
<feBlend mode="normal" in2="BackgroundImageFix" result="effect1_dropShadow_3_6448"/>
<feBlend mode="normal" in="SourceGraphic" in2="effect1_dropShadow_3_6448" result="shape"/>
</filter>
</defs>
</svg>
