<svg width="66" height="66" viewBox="0 0 66 66" fill="none" xmlns="http://www.w3.org/2000/svg">
<g filter="url(#filter0_d_3_6441)">
<path fill-rule="evenodd" clip-rule="evenodd" d="M32.8855 53.7709C45.5247 53.7709 55.7709 43.5247 55.7709 30.8855C55.7709 18.2462 45.5247 8 32.8855 8C20.2462 8 10 18.2462 10 30.8855C10 43.5247 20.2462 53.7709 32.8855 53.7709Z" fill="white"/>
</g>
<path d="M26.9874 27.8145V41.9685H22.2744V27.8145H26.9874ZM27.2871 23.4448L27.2888 23.5304C27.2888 24.1847 27.011 24.7735 26.5672 25.1859L26.5655 25.1868C26.3041 25.4258 25.9978 25.6107 25.6645 25.7307C25.3311 25.8506 24.9773 25.9033 24.6235 25.8856H24.6296H24.6008C24.2551 25.902 23.9096 25.8485 23.5851 25.7283C23.2606 25.608 22.9636 25.4236 22.7121 25.1859L22.7129 25.1868C22.4793 24.9614 22.2954 24.6897 22.1728 24.3892C22.0502 24.0886 21.9917 23.7658 22.001 23.4413V23.4448L22.0001 23.3845C22.0001 22.7188 22.2831 22.1196 22.7348 21.6994L22.7365 21.6985C23.2612 21.2207 23.9539 20.9706 24.6628 21.0031H24.6576C25.0049 20.9861 25.3521 21.0388 25.6787 21.1581C26.0053 21.2774 26.3047 21.4608 26.5594 21.6976L26.5576 21.6959C26.7886 21.9179 26.9723 22.1844 27.0977 22.4792C27.223 22.7741 27.2874 23.0912 27.2871 23.4116V23.4483V23.4466V23.4448ZM43.9395 33.858V41.9685H39.2413V34.3988C39.2891 33.5681 39.0835 32.7426 38.6517 32.0314L38.6622 32.0497C38.459 31.7635 38.1851 31.5349 37.8673 31.3861C37.5494 31.2373 37.1985 31.1734 36.8486 31.2006H36.8556C36.3088 31.1811 35.773 31.357 35.3442 31.6968L35.3495 31.6933C34.9536 32.0123 34.6437 32.4252 34.4479 32.8945L34.4409 32.9146C34.3213 33.29 34.2684 33.6836 34.2846 34.0773V34.0712V41.9702H29.5864C29.6056 38.1713 29.6152 35.091 29.6152 32.7294C29.6152 30.3677 29.6105 28.9586 29.6012 28.502L29.5873 27.8163H34.2854V29.8727H34.2566C34.4436 29.5713 34.6366 29.3101 34.8489 29.0655L34.8419 29.0734C35.0874 28.8034 35.3512 28.5597 35.6351 28.3413L35.6491 28.3308C36.0126 28.0519 36.4251 27.8433 36.8652 27.7158L36.8914 27.7097C37.4013 27.5609 37.93 27.4862 38.4612 27.4878H38.5302H38.5267C39.2591 27.457 39.9893 27.5856 40.6671 27.8648C41.3448 28.144 41.9537 28.5671 42.4518 29.1048L42.4544 29.1083C43.4457 30.1892 43.9413 31.7722 43.9413 33.8572L43.9395 33.858Z" fill="#0077B5"/>
<defs>
<filter id="filter0_d_3_6441" x="0" y="0" width="65.7695" height="65.7705" filterUnits="userSpaceOnUse" color-interpolation-filters="sRGB">
<feFlood flood-opacity="0" result="BackgroundImageFix"/>
<feColorMatrix in="SourceAlpha" type="matrix" values="0 0 0 0 0 0 0 0 0 0 0 0 0 0 0 0 0 0 127 0" result="hardAlpha"/>
<feOffset dy="2"/>
<feGaussianBlur stdDeviation="5"/>
<feColorMatrix type="matrix" values="0 0 0 0 0 0 0 0 0 0 0 0 0 0 0 0 0 0 0.1 0"/>
<feBlend mode="normal" in2="BackgroundImageFix" result="effect1_dropShadow_3_6441"/>
<feBlend mode="normal" in="SourceGraphic" in2="effect1_dropShadow_3_6441" result="shape"/>
</filter>
</defs>
</svg>
