<svg width="12" height="19" viewBox="0 0 12 19" fill="none" xmlns="http://www.w3.org/2000/svg">
<path d="M6 4.11007C5.51 4.11007 5.076 4.32187 4.799 4.65875C4.44056 5.09446 3.90721 5.38233 3.31628 5.45903C2.72536 5.53573 2.12526 5.39498 1.648 5.06775C1.17074 4.74051 0.855423 4.25359 0.771407 3.71411C0.68739 3.17463 0.84156 2.62677 1.2 2.19106C1.95568 1.27121 3.00926 0.591771 4.21147 0.249023C5.41368 -0.0937245 6.70355 -0.0824029 7.89832 0.281384C9.09308 0.645171 10.1322 1.34298 10.8683 2.27593C11.6045 3.20888 12.0004 4.32966 12 5.47949V16.4348C12 16.9191 11.7893 17.3835 11.4142 17.7259C11.0391 18.0683 10.5304 18.2607 10 18.2607H2C1.46957 18.2607 0.960859 18.0683 0.585786 17.7259C0.210714 17.3835 0 16.9191 0 16.4348V8.67479C0 8.19053 0.210714 7.72611 0.585786 7.38369C0.960859 7.04127 1.46957 6.8489 2 6.8489H6C6.39782 6.8489 6.77936 6.70462 7.06066 6.44781C7.34196 6.19099 7.5 5.84268 7.5 5.47949C7.5 5.11629 7.34196 4.76798 7.06066 4.51116C6.77936 4.25435 6.39782 4.11007 6 4.11007ZM3.75 14.1524C3.55109 14.1524 3.36032 14.2246 3.21967 14.353C3.07902 14.4814 3 14.6556 3 14.8372C3 15.0187 3.07902 15.1929 3.21967 15.3213C3.36032 15.4497 3.55109 15.5219 3.75 15.5219H8.25C8.44891 15.5219 8.63968 15.4497 8.78033 15.3213C8.92098 15.1929 9 15.0187 9 14.8372C9 14.6556 8.92098 14.4814 8.78033 14.353C8.63968 14.2246 8.44891 14.1524 8.25 14.1524H3.75Z" fill="#3D3D3D"/>
</svg>
