<svg width="66" height="66" viewBox="0 0 66 66" fill="none" xmlns="http://www.w3.org/2000/svg">
<g filter="url(#filter0_d_3_6437)">
<path fill-rule="evenodd" clip-rule="evenodd" d="M32.8855 53.7709C45.5247 53.7709 55.7709 43.5247 55.7709 30.8855C55.7709 18.2462 45.5247 8 32.8855 8C20.2462 8 10 18.2462 10 30.8855C10 43.5247 20.2462 53.7709 32.8855 53.7709Z" fill="white"/>
</g>
<path d="M44.0117 23.8736C43.2086 24.2295 42.3458 24.4699 41.4388 24.5786C42.3747 24.0186 43.0748 23.1372 43.4087 22.099C42.5294 22.6212 41.567 22.9889 40.5635 23.1859C39.8886 22.4653 38.9948 21.9877 38.0207 21.8272C37.0466 21.6667 36.0467 21.8323 35.1764 22.2983C34.306 22.7643 33.6139 23.5046 33.2074 24.4042C32.8009 25.3039 32.7028 26.3126 32.9283 27.2737C31.1466 27.1843 29.4037 26.7212 27.8126 25.9145C26.2215 25.1079 24.8178 23.9757 23.6926 22.5914C23.3078 23.2551 23.0866 24.0246 23.0866 24.8441C23.0862 25.5818 23.2678 26.3083 23.6155 26.9589C23.9632 27.6096 24.4661 28.1644 25.0796 28.5742C24.3681 28.5515 23.6722 28.3593 23.05 28.0134V28.0711C23.05 29.1058 23.4079 30.1087 24.0631 30.9095C24.7182 31.7104 25.6303 32.2599 26.6445 32.4649C25.9845 32.6435 25.2925 32.6698 24.6208 32.5418C24.9069 33.4321 25.4643 34.2106 26.2149 34.7684C26.9655 35.3262 27.8717 35.6353 28.8067 35.6524C27.2195 36.8984 25.2593 37.5743 23.2415 37.5713C22.884 37.5714 22.5269 37.5506 22.1719 37.5088C24.2201 38.8258 26.6044 39.5247 29.0395 39.522C37.2826 39.522 41.7889 32.6947 41.7889 26.7736C41.7889 26.5812 41.7841 26.3869 41.7754 26.1945C42.652 25.5606 43.4086 24.7757 44.0098 23.8765L44.0117 23.8736Z" fill="#0077B5"/>
<defs>
<filter id="filter0_d_3_6437" x="0" y="0" width="65.7695" height="65.7705" filterUnits="userSpaceOnUse" color-interpolation-filters="sRGB">
<feFlood flood-opacity="0" result="BackgroundImageFix"/>
<feColorMatrix in="SourceAlpha" type="matrix" values="0 0 0 0 0 0 0 0 0 0 0 0 0 0 0 0 0 0 127 0" result="hardAlpha"/>
<feOffset dy="2"/>
<feGaussianBlur stdDeviation="5"/>
<feColorMatrix type="matrix" values="0 0 0 0 0 0 0 0 0 0 0 0 0 0 0 0 0 0 0.1 0"/>
<feBlend mode="normal" in2="BackgroundImageFix" result="effect1_dropShadow_3_6437"/>
<feBlend mode="normal" in="SourceGraphic" in2="effect1_dropShadow_3_6437" result="shape"/>
</filter>
</defs>
</svg>
