<svg width="18" height="17" viewBox="0 0 18 17" fill="none" xmlns="http://www.w3.org/2000/svg">
<path d="M18 8.00215C18 10.217 17.1391 12.1104 15.4174 13.6822C13.6957 15.2541 11.6087 16.04 9.15652 16.04C7.69565 16.04 6.27391 15.7066 4.8913 15.0397L0 16.433L1.56522 12.1461C0.730435 10.8601 0.313043 9.47873 0.313043 8.00215C0.313043 5.78727 1.17391 3.89986 2.89565 2.33991C4.61739 0.779971 6.70435 0 9.15652 0C11.6087 0 13.6957 0.779971 15.4174 2.33991C17.1391 3.89986 18 5.78727 18 8.00215ZM9.15652 1.25034C7.09565 1.25034 5.3413 1.91123 3.89348 3.23301C2.44565 4.55479 1.72174 6.1445 1.72174 8.00215C1.72174 9.47873 2.1913 10.8005 3.13043 11.9675L2.1913 14.4682L5.08696 13.6465C6.36522 14.3848 7.72174 14.754 9.15652 14.754C11.2174 14.754 12.9717 14.0931 14.4196 12.7713C15.8674 11.4495 16.5913 9.85979 16.5913 8.00215C16.5913 6.1445 15.8674 4.55479 14.4196 3.23301C12.9717 1.91123 11.2174 1.25034 9.15652 1.25034ZM13.6174 9.85979C13.5913 9.83597 13.4609 9.75261 13.2261 9.60972C13.1478 9.5859 12.9 9.48469 12.4826 9.30607C12.0652 9.12745 11.8174 9.02623 11.7391 9.00241C11.5043 8.93097 11.3348 8.95478 11.2304 9.07386C11.2043 9.14531 11.1457 9.23462 11.0543 9.34179C10.963 9.44896 10.8652 9.55613 10.7609 9.66331C10.6565 9.77048 10.5913 9.83597 10.5652 9.85979C10.4609 10.0027 10.3043 10.0146 10.0957 9.89551C9.2087 9.49064 8.62174 9.16913 8.33478 8.93097C8.15217 8.76425 7.97609 8.58564 7.80652 8.39511C7.63696 8.20458 7.48043 8.02596 7.33696 7.85925C7.19348 7.69254 7.12174 7.59728 7.12174 7.57346C7.04348 7.40675 7.08261 7.27576 7.23913 7.1805C7.34348 7.0376 7.44783 6.91852 7.55217 6.82326L7.78696 6.50174C7.83913 6.38266 7.82609 6.26358 7.74783 6.1445C7.64348 5.8349 7.42174 5.34667 7.08261 4.67983C7.00435 4.46548 6.84783 4.35831 6.61304 4.35831H6.18261C5.94783 4.35831 5.75217 4.44167 5.59565 4.60838C5.1 5.06088 4.85217 5.59674 4.85217 6.21595C4.85217 6.78753 5.13913 7.46629 5.71304 8.25221L5.7913 8.35938C5.84348 8.43083 5.90217 8.50823 5.96739 8.59159C6.03261 8.67494 6.12391 8.78212 6.2413 8.9131C6.3587 9.04409 6.47609 9.16913 6.59348 9.28821C6.71087 9.40728 6.84783 9.54423 7.00435 9.69903C7.16087 9.85383 7.33043 10.0027 7.51304 10.1456C7.69565 10.2885 7.88478 10.4254 8.08043 10.5564C8.27609 10.6874 8.4913 10.8065 8.72609 10.9136C8.96087 11.0208 9.19565 11.122 9.43043 11.2173C9.84783 11.3602 10.2065 11.4793 10.5065 11.5745C10.8065 11.6698 11.0413 11.7293 11.2109 11.7532C11.3804 11.777 11.5043 11.7889 11.5826 11.7889C11.6609 11.7889 11.7522 11.777 11.8565 11.7532C11.9609 11.7293 12.0261 11.7174 12.0522 11.7174C12.287 11.6936 12.5674 11.5864 12.8935 11.3959C13.2196 11.2054 13.4217 11.003 13.5 10.7886C13.7087 10.2885 13.7478 9.97887 13.6174 9.85979Z" fill="#3D3D3D"/>
</svg>
